<svg class="icon" width="200" height="200" viewBox="0 0 1024 1024" xmlns="http://www.w3.org/2000/svg"><path fill="#333" d="M810.667 128H213.333C166.4 128 128 166.4 128 213.333v597.334C128 857.6 166.4 896 213.333 896h597.334C857.6 896 896 857.6 896 810.667V213.333C896 166.4 857.6 128 810.667 128zm0 640c0 23.467-19.2 42.667-42.667 42.667H256c-23.467 0-42.667-19.2-42.667-42.667V256c0-23.467 19.2-42.667 42.667-42.667h512c23.467 0 42.667 19.2 42.667 42.667v512z"/><path style="fill:#333;fill-opacity:1;stroke:none;stroke-width:38.0191;stroke-dasharray:76.0381,76.0381" d="M317.921 460.955h378.301v84.932H317.921z"/></svg>