<svg class="icon" width="200" height="200" viewBox="0 0 1024 1024" xmlns="http://www.w3.org/2000/svg"><path fill="#333" d="M810.667 128H213.333C166.4 128 128 166.4 128 213.333v597.334C128 857.6 166.4 896 213.333 896h597.334C857.6 896 896 857.6 896 810.667V213.333C896 166.4 857.6 128 810.667 128zm0 640c0 23.467-19.2 42.667-42.667 42.667H256c-23.467 0-42.667-19.2-42.667-42.667V256c0-23.467 19.2-42.667 42.667-42.667h512c23.467 0 42.667 19.2 42.667 42.667v512z"/><path fill="#333" d="M750.933 362.667 721.067 332.8c-8.534-8.533-21.334-8.533-29.867 0L445.867 576c-8.534 8.533-21.334 8.533-29.867 0l-85.333-85.333c-8.534-8.534-21.334-8.534-29.867 0l-29.867 29.866c-8.533 8.534-8.533 21.334 0 29.867l132.267 128 14.933 14.933c8.534 8.534 21.334 8.534 29.867 0L753.067 390.4c6.4-6.4 6.4-19.2-2.134-27.733z"/></svg>