<svg class="icon" width="200" height="200" viewBox="0 0 1024 1024" xmlns="http://www.w3.org/2000/svg"><path fill="#333" d="m482.206 544.294-.1-59.989 59.988-.1.1 59.989-59.988.1zm119.976-.2-.1-59.989 59.989-.1.1 59.989-59.989.1zm119.977-.3-.1-59.988 59.988-.1.1 59.988-59.988.1zm119.977-.2-.1-59.988 59.988-.1.1 59.988-59.988.1zm119.976-.2-.1-59.988 59.988-.1.1 59.988-59.988.1zm-480.806-59.588h59.988V513.8h-59.988zm59.988-64.888h-59.988v-64.787h59.988v64.787zm0-129.674h-59.988v-64.788h59.988v64.788zm0-129.575h-59.988V94.78h59.988v64.888zM481.306 0h59.988v29.994h-59.988z"/></svg>