<svg class="icon" width="200" height="200" viewBox="0 0 1024 1024" xmlns="http://www.w3.org/2000/svg"><path fill="#333" d="m482.914 1024-.1-59.97 59.971-.1.1 59.97-59.97.1zm-.2-119.941-.1-59.971 59.971-.1.1 59.97-59.97.1zm-.2-119.942-.1-59.97 59.971-.1.1 59.97-59.97.1zm-.2-119.941-.1-59.971 59.971-.1.1 59.97-59.97.1zm-.1-119.942-.1-59.97 59.971-.1.1 59.97-59.97.1zm-.2-119.941-.1-59.97 59.971-.1.1 59.97-59.97.1zm-.2-119.942-.1-59.97 59.972-.1.1 59.97-59.971.1zm-.2-119.941-.1-59.97 59.972-.1.1 59.97-59.971.1zm-.2-119.941-.099-59.971 59.97-.1.1 59.97-59.97.1z"/></svg>