<svg class="icon" width="200" height="200" viewBox="0 0 1024 1024" xmlns="http://www.w3.org/2000/svg"><path fill="#333" d="m481.284 542.176-.1-59.755 59.755-.1.1 59.756-59.755.1zm119.509-.2-.1-59.755 59.756-.1.1 59.756-59.756.1zm119.51-.298-.1-59.755 59.755-.1.1 59.755-59.755.1zm119.51-.2-.1-59.754 59.755-.1.1 59.755-59.755.1zm119.51-.198-.1-59.755 59.754-.1.1 59.755-59.755.1z"/><path fill="#333" d="M481.284 994.122h59.754V1024h-59.754zm59.754-64.635h-59.754v-64.536h59.754zm0-129.17h-59.754v-64.535h59.754zm0-129.071h-59.754V606.61h59.754zm-59.754-159.047h59.754v29.878h-59.754z"/></svg>